<svg xmlns="http://www.w3.org/2000/svg" width="18" height="16.154" viewBox="0 0 18 16.154">
    <defs>
        <style>
            .cls-1{fill:#006CE6}
        </style>
    </defs>
    <path id="_icon_briefcase" d="M78.025 65.634h-2.077v-1.352a2.326 2.326 0 0 0-2.308-2.34H70.4a2.322 2.322 0 0 0-2.3 2.334v1.358h-3a2.541 2.541 0 0 0-2.538 2.538v7.385A2.541 2.541 0 0 0 65.1 78.1h12.925a2.541 2.541 0 0 0 2.538-2.538v-7.389a2.542 2.542 0 0 0-2.538-2.539zm-8.539-1.364a.936.936 0 0 1 .923-.943h3.225a.939.939 0 0 1 .929.95v1.358h-5.077zm5.077 2.749v9.692h-5.077v-9.692zm-10.615 8.538v-7.384a1.155 1.155 0 0 1 1.152-1.154h3v9.692h-3a1.154 1.154 0 0 1-1.152-1.154zm15.231 0a1.155 1.155 0 0 1-1.154 1.154h-2.077v-9.692h2.077a1.155 1.155 0 0 1 1.154 1.154z" class="cls-1" data-name="📒 icon_briefcase" transform="translate(-62.563 -61.942)"/>
</svg>
