<svg xmlns="http://www.w3.org/2000/svg" width="18" height="16.054" viewBox="0 0 18 16.054">
    <defs>
        <style>
            .cls-1{fill:#636363}
        </style>
    </defs>
    <path id="_icon_metric" d="M74.543 78.5a.729.729 0 0 1-.691-.5l-4.27-12.563-1.791 5.263a.728.728 0 0 1-.691.494h-3.307a.73.73 0 0 1 0-1.459h2.785l2.314-6.8a.729.729 0 0 1 .691-.5.73.73 0 0 1 .691.5L74.543 75.5l1.79-5.265a.731.731 0 0 1 .691-.5h3.309a.73.73 0 0 1 0 1.459h-2.786L75.234 78a.728.728 0 0 1-.691.5z" class="cls-1" data-name="📒 icon_metric" transform="translate(-63.063 -62.442)"/>
</svg>
