<svg xmlns="http://www.w3.org/2000/svg" xmlns:xlink="http://www.w3.org/1999/xlink" width="23" height="23" viewBox="0 0 23 23">
    <defs>
        <path id="a" d="M6.9 2.3v3.45h8.05a1.15 1.15 0 1 1 0 2.3h-9.2A1.15 1.15 0 0 1 4.6 6.9V2.3H3.45A1.15 1.15 0 0 0 2.3 3.45v16.1c0 .635.515 1.15 1.15 1.15H4.6v-8.05c0-.635.515-1.15 1.15-1.15h11.5c.635 0 1.15.515 1.15 1.15v8.05h1.15a1.15 1.15 0 0 0 1.15-1.15V7.376L15.624 2.3H6.9zm9.2 18.4v-6.9H6.9v6.9h9.2zm3.45 2.3H3.45A3.45 3.45 0 0 1 0 19.55V3.45A3.45 3.45 0 0 1 3.45 0H16.1c.305 0 .598.121.813.337l5.75 5.75c.216.215.337.508.337.813v12.65A3.45 3.45 0 0 1 19.55 23z"/>
    </defs>
    <use fill="#FFF" fill-rule="nonzero" xlink:href="#a"/>
</svg>
