<svg xmlns="http://www.w3.org/2000/svg" width="18" height="18" viewBox="0 0 18 18">
    <defs>
        <style>
            .cls-1{fill:#636363}
        </style>
    </defs>
    <path id="_icon_settings" d="M72.063 73.605a3.162 3.162 0 1 1 3.162-3.162 3.166 3.166 0 0 1-3.162 3.162zm0-4.865a1.7 1.7 0 1 0 1.7 1.7 1.7 1.7 0 0 0-1.7-1.7zm.06 10.7a2.236 2.236 0 0 1-2.234-2.233.571.571 0 0 0-.941-.434 2.249 2.249 0 0 1-3.2.039 2.233 2.233 0 0 1 0-3.159.534.534 0 0 0 .024-.773.518.518 0 0 0-.358-.147H65.3a2.233 2.233 0 0 1 0-4.467.571.571 0 0 0 .434-.941 2.245 2.245 0 0 1-.695-1.617 2.217 2.217 0 0 1 .655-1.58 2.286 2.286 0 0 1 3.159 0 .533.533 0 0 0 .6.141.718.718 0 0 1 .149-.048.509.509 0 0 0 .228-.423v-.125a2.233 2.233 0 1 1 4.467 0 .528.528 0 0 0 .524.578.519.519 0 0 0 .359-.147 2.247 2.247 0 0 1 3.2-.036 2.234 2.234 0 0 1 0 3.16.53.53 0 0 0-.141.6.718.718 0 0 1 .048.149.512.512 0 0 0 .423.228h.125a2.233 2.233 0 1 1 0 4.467.538.538 0 0 0-.531.309v.008a.509.509 0 0 0 .1.562 2.235 2.235 0 1 1-3.12 3.2.531.531 0 0 0-.774-.026.521.521 0 0 0-.146.357v.122a2.235 2.235 0 0 1-2.241 2.238zm-2.808-4.271a2.067 2.067 0 0 1 2.034 1.954.8.8 0 0 0 .774.858.774.774 0 0 0 .774-.774v-.127a1.98 1.98 0 0 1 3.357-1.413.8.8 0 0 0 1.15.054.778.778 0 0 0 0-1.1 1.98 1.98 0 0 1 1.353-3.409.794.794 0 0 0 .846-.774.776.776 0 0 0-.774-.774H78.7a1.971 1.971 0 0 1-1.807-1.195.712.712 0 0 1-.053-.195 1.962 1.962 0 0 1 .45-2.032.822.822 0 0 0 .277-.6.766.766 0 0 0-.228-.547.775.775 0 0 0-1.1 0 2.016 2.016 0 0 1-1.413.611h-.017a1.983 1.983 0 0 1-1.981-1.962.8.8 0 0 0-.774-.849.775.775 0 0 0-.774.774v.131a1.972 1.972 0 0 1-1.194 1.807.755.755 0 0 1-.2.053 1.962 1.962 0 0 1-2.032-.45.777.777 0 1 0-1.146 1.046 1.983 1.983 0 0 1 .447 2.221 1.943 1.943 0 0 1-1.786 1.248.8.8 0 0 0-.859.774.774.774 0 0 0 .774.774h.127a1.98 1.98 0 0 1 1.411 3.358.828.828 0 0 0-.279.6.775.775 0 0 0 1.323.548 2.052 2.052 0 0 1 1.449-.608zm8.311-2.469z" class="cls-1" data-name="📒 icon_settings" transform="translate(-63.063 -61.442)"/>
</svg>
