<svg xmlns="http://www.w3.org/2000/svg" width="35.897" height="40" viewBox="0 0 35.897 40">
    <defs>
        <style>
            .cls-1{fill:#2c57c7}
        </style>
    </defs>
    <path id="_icon_user" d="M109.794 101.235a1.539 1.539 0 0 1-1.538-1.538v-4.1a6.674 6.674 0 0 0-6.667-6.667h-16.41a6.674 6.674 0 0 0-6.667 6.667v4.1a1.538 1.538 0 0 1-3.077 0v-4.1a9.754 9.754 0 0 1 9.744-9.744h16.41a9.755 9.755 0 0 1 9.744 9.744v4.1a1.539 1.539 0 0 1-1.539 1.538zm-6.667-30.256a9.744 9.744 0 1 0-9.744 9.744 9.755 9.755 0 0 0 9.744-9.744zm-3.077 0a6.667 6.667 0 1 1-6.667-6.667 6.674 6.674 0 0 1 6.667 6.667z" class="cls-1" data-name="📒 icon_user" transform="translate(-75.435 -61.235)"/>
</svg>
