<svg xmlns="http://www.w3.org/2000/svg" xmlns:xlink="http://www.w3.org/1999/xlink" width="18" height="16" viewBox="0 0 18 16">
    <defs>
        <path id="a" d="M6.546 8.66L.195 1.316C-.255.796.123 0 .82 0h16.36c.697 0 1.075.797.625 1.316l-6.35 7.344V15.2c0 .595-.64.981-1.185.716l-3.272-1.6a.798.798 0 0 1-.452-.716V8.66zM16.2 1.297H1.8l6.065 6.81c.14.158.217.357.217.563v5.161l1.836.872V8.67c0-.206.077-.405.217-.563l6.065-6.81z"/>
    </defs>
    <use fill="#161515" fill-rule="nonzero" opacity=".743" xlink:href="#a"/>
</svg>
