<svg xmlns="http://www.w3.org/2000/svg" width="26" height="22" viewBox="0 0 26 22">
    <path fill="#006CE6" fill-rule="nonzero" d="M15.69 3.776a4.753 4.753 0 0 1 2.199 3.53c.49.23 1.034.362 1.61.362 2.107 0 3.814-1.717 3.814-3.834C23.313 1.716 21.606 0 19.5 0c-2.086 0-3.778 1.686-3.81 3.776zm-2.498 7.85c2.106 0 3.813-1.716 3.813-3.834 0-2.117-1.707-3.834-3.813-3.834S9.378 5.675 9.378 7.792c0 2.118 1.708 3.834 3.814 3.834zm1.617.262h-3.235c-2.693 0-4.883 2.202-4.883 4.909v3.979l.01.062.273.086C9.544 21.73 11.775 22 13.612 22c3.589 0 5.668-1.029 5.797-1.094l.254-.13h.028v-3.979c0-2.707-2.19-4.91-4.882-4.91zm6.309-3.958h-3.21a4.737 4.737 0 0 1-1.451 3.29 5.829 5.829 0 0 1 4.144 5.583v1.226c3.17-.117 4.997-1.02 5.117-1.081l.255-.13H26v-3.98c0-2.706-2.19-4.908-4.882-4.908zM6.501 7.669c.746 0 1.44-.22 2.028-.592a4.75 4.75 0 0 1 1.774-3.027c.004-.071.01-.143.01-.215 0-2.118-1.707-3.834-3.812-3.834-2.107 0-3.813 1.716-3.813 3.834 0 2.117 1.706 3.834 3.813 3.834zm3.424 3.552a4.74 4.74 0 0 1-1.45-3.273c-.118-.009-.236-.018-.357-.018H4.882C2.19 7.93 0 10.132 0 12.838v3.98l.01.06.273.087c2.06.647 3.9.945 5.498 1.04v-1.202a5.83 5.83 0 0 1 4.144-5.582z"/>
</svg>
