<svg xmlns="http://www.w3.org/2000/svg" width="15.998" height="22.013" viewBox="0 0 15.998 22.013">
    <defs>
        <style>
            .cls-1{fill:#b2b2cc}
        </style>
    </defs>
    <path id="icon_scooter" d="M13.024 98.666a2 2 0 0 0-2 1.988v4.024a2 2 0 0 0 4 0v-4.024a2 2 0 0 0-2-1.988zm6.982-11.583h-3.733a3.457 3.457 0 0 0-6.594 0H5.994a.967.967 0 1 0 0 1.934h3.73a3.336 3.336 0 0 0 1.5 1.934 6.342 6.342 0 0 0-4.558 6.043v5.072a1.611 1.611 0 0 0 1.6 1.6h1.316v-2.756a3.442 3.442 0 0 1 6.885 0v2.756h1.309a1.612 1.612 0 0 0 1.6-1.6v-5.023A6.3 6.3 0 0 0 14.818 91a3.338 3.338 0 0 0 1.506-1.933h3.73a.97.97 0 0 0 .97-.967 1.055 1.055 0 0 0-1.018-1.017zm-6.922 2.95h-.109a1.934 1.934 0 1 1 1.94-1.934 1.883 1.883 0 0 1-1.831 1.934z" class="cls-1" transform="translate(-5.026 -84.665)"/>
</svg>
