<svg xmlns="http://www.w3.org/2000/svg" width="16" height="14.999" viewBox="0 0 16 14.999">
    <defs>
        <style>
            .cls-1{fill:#b2b2cc}
        </style>
    </defs>
    <path id="icon_percent" d="M13.128 86.55a.981.981 0 0 0-1.278.393l-7.1 13.2a.88.88 0 0 0 .371 1.187q.026.014.051.024a.977.977 0 0 0 .431.1.96.96 0 0 0 .851-.493l7.1-13.2a.879.879 0 0 0-.371-1.186zm-7.978.9a3.5 3.5 0 1 0 3.5 3.5 3.5 3.5 0 0 0-3.5-3.5zm0 5.155A1.654 1.654 0 1 1 6.8 90.95a1.653 1.653 0 0 1-1.65 1.655zm9 .845a3.5 3.5 0 1 0 3.5 3.5 3.5 3.5 0 0 0-3.5-3.5zm0 5.155a1.654 1.654 0 1 1 1.655-1.655 1.653 1.653 0 0 1-1.655 1.655z" class="cls-1" transform="translate(-1.65 -86.451)"/>
</svg>
