<svg xmlns="http://www.w3.org/2000/svg" width="16" height="16" viewBox="0 0 16 16">
    <defs>
        <style>
            .cls-1{fill:#b2b2cc}
        </style>
    </defs>
    <path id="icon_world" d="M10.1 91.38a8 8 0 1 0 8 8 8 8 0 0 0-8-8zm1.964 14.563c.035-.067.069-.133.1-.2a2.251 2.251 0 0 1 .645-.825c.228-.184.677-.47.6-.83-.053-.26-.35-.367-.575-.431a5.416 5.416 0 0 0-1.1-.153 5.335 5.335 0 0 1-.96-.09c-.465-.118-.57-.521-.6-.946a2.627 2.627 0 0 0-.206-1.107 1.5 1.5 0 0 0-1.245-.606c-.385-.035-.769-.017-1.152-.081a5.323 5.323 0 0 0-1.1-.176c-.49.019-.71.351-.92.735a9.929 9.929 0 0 1-1.138 1.976 6.814 6.814 0 0 1-1.144-3.37.859.859 0 0 0 .162-.062c.213-.106.362-.3.594-.373a1.923 1.923 0 0 1 .733.014 2.957 2.957 0 0 0 .678.015.869.869 0 0 0 .759-.8 5.787 5.787 0 0 0 .017-.779c.012-.406.279-.552.646-.586.693-.065 2.311.119 2.343-.948.014-.456-.529-.692-.883-.814a21.059 21.059 0 0 0-2.149-.324 1.986 1.986 0 0 1-.956-.6 6.847 6.847 0 0 1 6.087-1.949 3.071 3.071 0 0 0-.587.167 1.639 1.639 0 0 0-.726 2.2 1.57 1.57 0 0 0 .125.208 4.357 4.357 0 0 0 1.18 1.351 9.239 9.239 0 0 0 1.433.844c.659.362.579 1.308.746 1.945a1.622 1.622 0 0 0 1.011 1.177c.322.112.7.025.981.249.242.192.3.585.437.849a.65.65 0 0 0 .522.393 6.885 6.885 0 0 1-4.358 3.927z" class="cls-1" transform="translate(-2.1 -91.38)"/>
</svg>
