<svg xmlns="http://www.w3.org/2000/svg" width="21.001" height="25.001" viewBox="0 0 21.001 25.001">
    <defs>
        <style>
            .cls-1{fill:#006ce6}
        </style>
    </defs>
    <path id="icon_money" d="M71.756 72.453a.9.9 0 0 0-.243-.217 2.562 2.562 0 0 0-.618-.267v2a1.122 1.122 0 0 0 .915-.59 1.115 1.115 0 0 0 .068-.625.7.7 0 0 0-.122-.301zm-2.726-3.936a.865.865 0 0 0-.13.389 1.008 1.008 0 0 0 .043.429.667.667 0 0 0 .242.294 1.851 1.851 0 0 0 .36.205 3.492 3.492 0 0 0 .35.134v-2a1.351 1.351 0 0 0-.865.549zm2.691-7.108c1.925-1.6 3.212-5.2 2.42-5.354-1.052-.21-3.336.708-4.441.869-1.567.186-3.273-1.678-4.231-.639-.779.845.559 3.918 2.651 5.257-6.242 3.026-15.013 18.231.289 19.336 21.174 1.522 10.572-16.519 3.312-19.469zm.956 13.482a3.3 3.3 0 0 1-1.755.612v.656a.618.618 0 0 1-.209.461.634.634 0 0 1-.674.1.618.618 0 0 1-.362-.559v-.717a3.993 3.993 0 0 1-.32-.073 3.051 3.051 0 0 1-1.521-.925 2.7 2.7 0 0 1-.471-.765 3.514 3.514 0 0 1-.078-.224 1.217 1.217 0 0 1-.052-.208.606.606 0 0 1 .072-.344.626.626 0 0 1 1.143.095c.024.07.04.143.066.213a1.339 1.339 0 0 0 .1.2 1.6 1.6 0 0 0 .273.345 1.85 1.85 0 0 0 .794.426v-2.437a4.436 4.436 0 0 1-1.633-.7 1.876 1.876 0 0 1-.552-.654 2.037 2.037 0 0 1-.192-.88 2.091 2.091 0 0 1 .187-.891A2.2 2.2 0 0 1 68 67.93a3.151 3.151 0 0 1 1.679-.735v-.678a.62.62 0 0 1 .211-.461.633.633 0 0 1 .672-.1.622.622 0 0 1 .364.56v.677c.081.01.162.023.243.037a3.1 3.1 0 0 1 1.625.779 2.342 2.342 0 0 1 .5.707 2.039 2.039 0 0 1 .088.224 1.422 1.422 0 0 1 .06.219.618.618 0 0 1-.052.35.627.627 0 0 1-1.158-.038c-.026-.067-.039-.138-.066-.205a1.1 1.1 0 0 0-.1-.193 1.2 1.2 0 0 0-.294-.3 2.039 2.039 0 0 0-.856-.329v2.323a8.114 8.114 0 0 1 1.064.312 2.48 2.48 0 0 1 1.3 1c-.044-.075-.086-.151 0 0a2.167 2.167 0 0 1 .252 1.32 2.192 2.192 0 0 1-.855 1.492z" class="cls-1" transform="translate(-59.894 -55.968)"/>
</svg>
