<svg xmlns="http://www.w3.org/2000/svg" width="13" height="14" viewBox="0 0 13 14">
    <defs>
        <style>
            .cls-1{fill:#01961b}
        </style>
    </defs>
    <path id="icon_bolt" d="M74.761 82.343a.5.5 0 0 1-.5-.564l.594-4.635h-5.427a.5.5 0 0 1-.38-.826l6.667-7.8a.5.5 0 0 1 .876.388L76 73.543h5.432a.5.5 0 0 1 .38.825l-6.667 7.8a.5.5 0 0 1-.384.175zm-4.248-6.2h4.915a.5.5 0 0 1 .5.563l-.454 3.536 4.873-5.7h-4.919a.5.5 0 0 1-.5-.563l.453-3.538z" class="cls-1" transform="translate(-68.928 -68.343)"/>
</svg>
