<svg xmlns="http://www.w3.org/2000/svg" width="18.5" height="18.5" viewBox="0 0 18.5 18.5">
    <defs>
        <style>
            .cls-1{fill:#fff}
        </style>
    </defs>
    <path id="icon_clock" d="M90.5 108.75a9.25 9.25 0 1 1 9.25-9.25 9.26 9.26 0 0 1-9.25 9.25zm0-17a7.75 7.75 0 1 0 7.75 7.75 7.759 7.759 0 0 0-7.75-7.75zm3.061 11.75a.75.75 0 0 0-.063-1.059L90.75 100v-5a.75.75 0 0 0-1.5 0v5.333a.753.753 0 0 0 .252.561l3 2.667a.751.751 0 0 0 1.059-.063z" class="cls-1" transform="translate(-81.25 -90.25)"/>
</svg>
