<svg xmlns="http://www.w3.org/2000/svg" width="25.112" height="18.049" viewBox="0 0 25.112 18.049">
    <defs>
        <style>
            .cls-1{fill:#fff}
        </style>
    </defs>
    <path id="icon_light_on" d="M59.184 64.848l4.782 1.461-.439 1.435-4.781-1.462zm0 4l4.782 1.461-.439 1.435-4.781-1.462zm0 4l4.782 1.461-.439 1.435-4.781-1.462zm0 4l4.782 1.461-.439 1.435-4.781-1.462zm-4.118-13.8l-.249-.5h-6.939a9.025 9.025 0 0 0 0 18.049h6.937l.25-.5a20.082 20.082 0 0 0 0-17.049zm-5.01 15.743H47.88a7.219 7.219 0 1 1 0-14.438h2.175a18.244 18.244 0 0 1 0 14.438zm3.615 0H52a19.949 19.949 0 0 0 0-14.441h1.669a18.289 18.289 0 0 1 0 14.438z" class="cls-1" transform="translate(-38.854 -62.545)"/>
</svg>
