<svg xmlns="http://www.w3.org/2000/svg" width="16.5" height="22.5" viewBox="0 0 16.5 22.5">
    <path d="M7.5 16.716v-1.77a.75.75 0 0 1 .75-.75.75.75 0 0 1 .75.75v1.77a.75.75 0 0 1-.75.75.75.75 0 0 1-.75-.75zm9-6.42V21.75a.75.75 0 0 1-.75.75h-15a.75.75 0 0 1-.75-.75V10.3a.75.75 0 0 1 .75-.75h1.394V6.481a8.08 8.08 0 0 1 .783-4.338C3.827.7 5.567 0 8.25 0c6.107 0 6.107 3.594 6.107 6.481v3.065h1.393a.75.75 0 0 1 .75.754zm-12.856-.75h9.213V6.481c0-2.892 0-4.981-4.607-4.981-2.123 0-3.45.47-4.05 1.436a6.971 6.971 0 0 0-.556 3.543zm11.361 1.505H2.899c-.01 0-.018-.005-.027-.005H1.505V21h13.5z"/>
</svg>
