<svg xmlns="http://www.w3.org/2000/svg" width="16.5" height="22.5" viewBox="0 0 16.5 22.5">
    <defs>
        <style>
            .cls-1{fill:#fff}
        </style>
    </defs>
    <path id="icon_locked" d="M61.28 65.516v-1.77a.75.75 0 0 1 .75-.75.75.75 0 0 1 .75.75v1.77a.75.75 0 0 1-.75.75.75.75 0 0 1-.75-.75zm9-6.42V70.55a.75.75 0 0 1-.75.75h-15a.75.75 0 0 1-.75-.75V59.1a.75.75 0 0 1 .75-.75h1.394v-3.069a8.08 8.08 0 0 1 .783-4.338c.9-1.443 2.64-2.143 5.323-2.143 6.107 0 6.107 3.594 6.107 6.481v3.065h1.393a.75.75 0 0 1 .75.754zm-12.856-.75h9.213v-3.065c0-2.892 0-4.981-4.607-4.981-2.123 0-3.45.47-4.05 1.436a6.971 6.971 0 0 0-.556 3.543zm11.361 1.505H56.679c-.01 0-.018-.005-.027-.005h-1.367V69.8h13.5z" class="cls-1" transform="translate(-53.78 -48.8)"/>
</svg>
