<svg xmlns="http://www.w3.org/2000/svg" width="37" height="37" viewBox="0 0 37 37">
    <defs>
        <style>
            .cls-1{fill:none}.cls-2{clip-path:url(#clip-path)}.cls-3{fill:url(#linear-gradient)}.cls-4{fill:#42474b}.cls-5{fill:#fdfdfd}
        </style>
        <clipPath id="clip-path">
            <path d="M0 0h37v37H0z" class="cls-1"/>
        </clipPath>
        <linearGradient id="linear-gradient" x1=".5" x2=".5" y2="1" gradientUnits="objectBoundingBox">
            <stop offset="0" stop-color="#6207ef"/>
            <stop offset="1" stop-color="#00baff"/>
        </linearGradient>
    </defs>
    <g id="mark_scooter_inuse" class="cls-2">
        <path id="Frame" d="M0 0h37v37H0z" class="cls-1"/>
        <path id="Mark" d="M30.93 2.5a14.438 14.438 0 0 1 14.43 14.455 14.451 14.451 0 0 1-9.1 13.69c-4.958 1.9-5.328 4.193-5.328 7.6-5.7-7.995-14.432-12.558-14.432-21.34A14.428 14.428 0 0 1 30.93 2.5z" class="cls-3" transform="translate(-12.43 -1.883)"/>
        <circle id="Background" cx="12.259" cy="12.259" r="12.259" class="cls-4" transform="translate(6.29 2.837)"/>
        <g id="icon_scooter" transform="translate(9.916 6.487)">
            <path id="Frame-2" d="M0 0h17.267v17.267H0z" class="cls-1" data-name="Frame"/>
            <path id="icon_scooter_v3.1-2" d="M58.036 43.434v.025a1.293 1.293 0 0 1-.271-.247c0 .025 0 .049-.025.049a1.9 1.9 0 0 1-.3.863 1.432 1.432 0 0 1-.715.543 2.155 2.155 0 0 1-.543.123 2.054 2.054 0 0 1-.543-.074 2.321 2.321 0 0 1-.543-.3 1.5 1.5 0 0 1-.444-.592c-.025-.049-.074-.1-.123-.074h-8.51a.268.268 0 0 1-.222-.1c-.148-.2-.3-.395-.444-.567a.176.176 0 0 0-.148-.074.222.222 0 0 1-.123-.025.079.079 0 0 1-.074-.074c0-.025 0-.025.025-.049a.22.22 0 0 1 .2-.123h.247c-.025-.049-.049-.074-.049-.1-.222-.271-.419-.543-.641-.814-.173-.222-.37-.469-.543-.691l-.074-.074c0 .025-.025.025-.025.049 0 .049-.025.1-.025.148-.025.1-.025.2-.049.3a.119.119 0 0 0 .049.148 1.779 1.779 0 0 1 .518.617 1.715 1.715 0 0 1 .222.987v.025c0 .025 0 .049-.025.049s-.025 0-.049-.025l-.049-.049a.876.876 0 0 1-.1-.222 4.8 4.8 0 0 0-.2-.543 1.382 1.382 0 0 0-.395-.518c-.02-.025-.045-.025-.069-.046-.049.025-.025.049 0 .074.049.025.074.074.123.1a1.884 1.884 0 0 1 .37.567 1.288 1.288 0 0 1 .1.518 1.878 1.878 0 0 1-.074.518 1.465 1.465 0 0 1-.444.715 1.631 1.631 0 0 1-1.233.444 1.5 1.5 0 0 1-.641-.2 1.454 1.454 0 0 1-.592-.567 1.542 1.542 0 0 1-.222-.987 1.658 1.658 0 0 1 1.258-1.455c.074-.025.074-.025.074-.1h-.049a.887.887 0 0 0-.271.049c-.025 0-.074.025-.1.025a.418.418 0 0 1-.247 0c-.025 0-.049-.025-.074-.025.025-.025.049-.049.074-.049a1.9 1.9 0 0 1 .617-.247h.074a.079.079 0 0 0 .074-.074 4.8 4.8 0 0 0 .2-.543v-.025c.049-.049.025-.1.025-.173a.024.024 0 0 0-.025-.025c0-.025-.025-.025-.025-.049a.24.24 0 0 1-.025-.222c.1-.345.173-.691.247-1.036a.392.392 0 0 1 .2-.247c.025 0 .025-.025.049-.049a.193.193 0 0 1 .1-.1.208.208 0 0 0 .1-.173.091.091 0 0 1 .025-.074c.049-.222.123-.444.173-.691a.226.226 0 0 1 .1-.148.359.359 0 0 0 .148-.222c.3-1.135.592-2.269.888-3.429l.888-3.552a.186.186 0 0 1 .025-.1h-.049a.52.52 0 0 1-.321-.123 2.62 2.62 0 0 1-.271-.222 1.4 1.4 0 0 0-.321-.2.187.187 0 0 0-.1-.049.261.261 0 0 1-.148-.173q0-.037-.074-.074a.246.246 0 0 1-.123-.1c-.025-.025-.025-.025-.049-.025h-.1c-.049 0-.074 0-.1-.074 0-.049 0-.074.049-.1a.876.876 0 0 1 .247-.049h.148c.049-.025.123-.049.173-.074s.049-.074.049-.123c.025-.1.049-.2.074-.271.025-.049.025-.049.074-.049a.148.148 0 0 0 .1-.025.24.24 0 0 1 .345.025l.025.025a.339.339 0 0 0 .2.123c.321.074.617.148.937.222.049 0 .074.025.123.025.1.025.1.025.074.123l-.074.37c-.049.173-.074.345-.123.518v.2c-.074.3-.148.592-.222.863-.173.666-.321 1.307-.493 1.973a.148.148 0 0 1-.025.1c.1.049.1.049.148-.049 0-.025.025-.025.025-.049s.025-.049.049-.025.025.025.025.049a.351.351 0 0 0-.049.148.539.539 0 0 1-.074.123c-.049.049-.1 0-.148 0h-.025c0 .025-.025.049-.025.074-.148.617-.321 1.233-.469 1.85-.2.765-.37 1.5-.543 2.269a.292.292 0 0 0 .025.247.481.481 0 0 1 .025.2c-.074.222-.123.469-.2.691a.351.351 0 0 0-.049.148c0 .049 0 .074.025.1a.163.163 0 0 1 .025.148l-.148.592a.217.217 0 0 0 .025.173c.641.789 1.258 1.6 1.9 2.393.074.1.173.222.247.321a.187.187 0 0 0 .1.049h6.586a.28.28 0 0 0 .2-.074.516.516 0 0 1 .148-.1l.222-.074a.7.7 0 0 0 .271-.2.443.443 0 0 0 .123-.173l.074-.074.011-.02c0-.074.049-.1.1-.123a.384.384 0 0 1 .2-.148c.025 0 .025-.025.049-.025a.4.4 0 0 1 .173-.1.471.471 0 0 1 .2-.074h.025a.689.689 0 0 1 .444-.148 2.19 2.19 0 0 1 1.653.419 1.933 1.933 0 0 1 .592.814 4.922 4.922 0 0 1 .222.863c-.057-.069-.057-.044-.057-.044zM45.9 30.163c0-.049.025-.074.025-.123a.065.065 0 0 1 .075-.074c.025 0 .025 0 .025-.025a.426.426 0 0 0 .025-.247c-.025-.074-.1-.1-.148-.123s-.074.025-.1.049a.2.2 0 0 1-.3.025c-.025-.025-.049-.049-.074-.049a.654.654 0 0 1-.148-.123l-.049-.049a1.238 1.238 0 0 0-.3-.049.024.024 0 0 0-.025.025c-.049.025-.1.074-.148.1-.049 0-.049.025-.049.049.025.025.025.049.049.074a.539.539 0 0 0 .123.074c.123.074.247.148.345.222l.3.222a.4.4 0 0 0 .222.074c.127.022.127.022.152-.052zm9.669 12.58c.025-.025.074-.074.074-.1-.025-.025-.025-.049-.049-.049-.025.025-.025.074-.025.148zm.074.074c0-.025 0-.025-.025-.025s-.025 0-.025.025c-.025.025.049.025.049 0zm.049-.049c0-.025 0-.025-.025-.025s-.025 0-.025.025 0 .025.025.025l.025-.025zm.025-.049zm0-.123l.049-.025v-.025l-.025-.049h-.025l-.049.025v.025l.025.049s0 .025.025 0zm.049.049c0 .025 0 .025.025.025s.025 0 .025-.025 0-.025-.025-.025-.025 0-.025.025zm.025.2l-.025-.049-.049.049h.074zm.049-.025v-.1l-.049.025.049.074zm.025-.345l-.049-.025v-.025l-.049.025.049.074.049-.049zm.1-.888a.262.262 0 0 0-.3.049z" class="cls-5" transform="translate(-41.065 -28.067)"/>
        </g>
    </g>
</svg>
