<svg xmlns="http://www.w3.org/2000/svg" width="20" height="18" viewBox="0 0 20 18">
    <defs>
        <style>
            .cls-1{fill:#1270e3}
        </style>
    </defs>
    <path id="icon_printer" d="M80.1 65.469h-2.24V61.9a.6.6 0 0 0-.6-.59H65.766a.6.6 0 0 0-.6.59v3.569h-2.245a1.4 1.4 0 0 0-1.411 1.377v7.57a1.4 1.4 0 0 0 1.411 1.377h2.24v2.927a.6.6 0 0 0 .6.59h11.493a.6.6 0 0 0 .6-.59v-2.927h2.24a1.4 1.4 0 0 0 1.416-1.377v-7.57a1.4 1.4 0 0 0-1.41-1.377zM66.371 62.49H76.65v2.979H66.371zM76.65 78.13H66.371v-5.854H76.65zm3.65-3.711a.2.2 0 0 1-.2.2h-2.241v-2.93a.6.6 0 0 0-.6-.59H65.765a.6.6 0 0 0-.6.59v2.927h-2.246a.2.2 0 0 1-.2-.2v-7.567a.2.2 0 0 1 .2-.2H80.1a.2.2 0 0 1 .2.2v7.57zm-2.79-7.109a1 1 0 1 1-1 1 1 1 0 0 1 1-1zm-2.631 6h-5.738a.514.514 0 1 0 0 1h5.738a.514.514 0 1 0 0-1zm0 2h-5.738a.514.514 0 1 0 0 1h5.738a.514.514 0 1 0 0-1z" class="cls-1" transform="translate(-61.51 -61.31)"/>
</svg>
