<svg xmlns="http://www.w3.org/2000/svg" width="16" height="22" viewBox="0 0 16 22">
    <g fill="#006CE6" fill-rule="evenodd">
        <path d="M8 14a2 2 0 0 0-2 1.988v4.024A2 2 0 0 0 8 22a2 2 0 0 0 2-1.988v-4.024A2 2 0 0 0 8 14z"/>
        <path fill-rule="nonzero" d="M14.982 2.417h-3.733A3.447 3.447 0 0 0 7.952 0a3.447 3.447 0 0 0-3.297 2.417H.97a.971.971 0 0 0-.97.967c0 .532.436.967.97.967h3.733a3.34 3.34 0 0 0 1.503 1.934c-2.618.774-4.558 3.19-4.558 6.043v5.077c0 .87.728 1.595 1.6 1.595h1.31v-2.756c0-1.885 1.551-3.432 3.442-3.432 1.89 0 3.442 1.547 3.442 3.432V19h1.31c.872 0 1.6-.725 1.6-1.595v-5.028c0-2.853-1.94-5.318-4.558-6.044A3.34 3.34 0 0 0 11.297 4.4h3.733c.534 0 .97-.435.97-.966-.048-.58-.485-1.016-1.018-1.016zm-7.03 2.95c-1.067 0-1.94-.87-1.94-1.934s.873-1.934 1.94-1.934c1.066 0 1.939.87 1.939 1.934.048 1.063-.824 1.933-1.94 1.933z"/>
    </g>
</svg>
