<svg xmlns="http://www.w3.org/2000/svg" width="16.904" height="18" viewBox="0 0 16.904 18">
    <defs>
        <style>
            .cls-1{fill:#787993}
        </style>
    </defs>
    <path id="_icon_attach" d="M74.647 85.091a7.086 7.086 0 0 1-4.914-1.978 4.85 4.85 0 0 1-.216-.215 6.647 6.647 0 0 1 .216-9.4l5.175-5.013a5.006 5.006 0 0 1 6.937 0l.147.147a4.7 4.7 0 0 1-.147 6.653L77.082 79.9a2.914 2.914 0 0 1-4.035 0l-.1-.1a2.762 2.762 0 0 1 .1-3.9l3.518-3.4a.817.817 0 1 1 1.135 1.178l-3.519 3.412a1.127 1.127 0 0 0-.04 1.6 1.3 1.3 0 0 0 1.807.036l4.762-4.613a3.071 3.071 0 0 0 .1-4.344l-.1-.1a3.37 3.37 0 0 0-4.665.005l-5.178 5.006a5.013 5.013 0 0 0-.164 7.092c.053.056.1.106.155.155a5.465 5.465 0 0 0 7.575 0l4.761-4.611a.818.818 0 1 1 1.138 1.184l-4.765 4.61a7.1 7.1 0 0 1-4.92 1.981z" class="cls-1" data-name="📒 icon_attach" transform="translate(-67.677 -67.091)"/>
</svg>
