<svg xmlns="http://www.w3.org/2000/svg" width="12.5" height="19.224" viewBox="0 0 12.5 19.224">
    <defs>
        <style>
            .cls-1{fill:#3ac068}
        </style>
    </defs>
    <path id="_icon_award" d="M78.563 67.331a6.25 6.25 0 1 0-9.941 5.033l-.942 7.091a.75.75 0 0 0 .743.849.742.742 0 0 0 .386-.107l3.643-2.185 3.642 2.188a.749.749 0 0 0 1.129-.742l-.966-7.281a6.241 6.241 0 0 0 2.306-4.846zm-11 0a4.75 4.75 0 1 1 4.75 4.75 4.755 4.755 0 0 1-4.75-4.75zm7.968 10.779l-2.694-1.617a.751.751 0 0 0-.771 0l-2.694 1.617.66-4.966a6.181 6.181 0 0 0 4.825-.11z" class="cls-1" data-name="📒 icon_award" transform="translate(-66.063 -61.081)"/>
</svg>
