<svg xmlns="http://www.w3.org/2000/svg" width="15" height="12.004" viewBox="0 0 15 12.004">
    <defs>
        <style>
            .cls-1{fill:#a1a1a1}
        </style>
    </defs>
    <path id="_icon_comment" d="M73.428 81.344a.5.5 0 0 1-.5-.5v-6a2.5 2.5 0 0 1 2.5-2.5h5a2.5 2.5 0 0 1 2.5 2.5v2.136a2.5 2.5 0 0 1-2.5 2.5H75.5l-1.718 1.72a.5.5 0 0 1-.354.144zm2-8a1.5 1.5 0 0 0-1.5 1.5v4.792l1.007-1.01a.5.5 0 0 1 .354-.146h5.139a1.5 1.5 0 0 0 1.5-1.5v-2.137a1.5 1.5 0 0 0-1.5-1.5zM68.782 78.2l1.718-1.721h1.765a.5.5 0 0 0 0-1h-1.976a.5.5 0 0 0-.354.146l-1.007 1.01V71.1a.8.8 0 0 1 .8-.755h6.412a.8.8 0 0 1 .55.215.757.757 0 0 1 .238.529v.65a.5.5 0 0 0 1 0v-.66a1.762 1.762 0 0 0-.546-1.242 1.7 1.7 0 0 0-1.254-.492h-6.389a1.783 1.783 0 0 0-1.811 1.744v6.757a.5.5 0 0 0 .854.353z" class="cls-1" data-name="📒 icon_comment" transform="translate(-67.928 -69.34)"/>
</svg>
