<svg xmlns="http://www.w3.org/2000/svg" width="14.954" height="18" viewBox="0 0 14.954 18">
    <defs>
        <style>
            .cls-1{fill:#787993}
        </style>
    </defs>
    <path id="_icon_pin" d="M75.655 84.616a.77.77 0 0 1-.431-.131c-.288-.193-7.046-4.793-7.046-10.392a7.477 7.477 0 1 1 14.954 0c0 5.6-6.758 10.2-7.046 10.392a.772.772 0 0 1-.431.131zm0-16.453a5.936 5.936 0 0 0-5.93 5.93c0 4.042 4.5 7.726 5.929 8.8 1.43-1.073 5.931-4.763 5.931-8.8a5.936 5.936 0 0 0-5.93-5.93zm0 10.265a3.351 3.351 0 1 1 3.352-3.351 3.355 3.355 0 0 1-3.352 3.351zm0-5.155a1.8 1.8 0 1 0 1.8 1.8 1.807 1.807 0 0 0-1.8-1.8z" class="cls-1" data-name="📒 icon_pin" transform="translate(-68.178 -66.616)"/>
</svg>
