<svg xmlns="http://www.w3.org/2000/svg" width="23.5" height="19.5" viewBox="0 0 23.5 19.5">
    <defs>
        <style>
            .cls-1{fill:#787993}
        </style>
    </defs>
    <path id="_icon_team" d="M92.185 80.735a.75.75 0 0 1-.75-.75v-2a3.254 3.254 0 0 0-3.25-3.25h-8a3.254 3.254 0 0 0-3.25 3.25v2a.75.75 0 0 1-1.5 0v-2a4.755 4.755 0 0 1 4.75-4.75h8a4.756 4.756 0 0 1 4.75 4.75v2a.75.75 0 0 1-.75.75zm-3.25-14.75a4.75 4.75 0 1 0-4.75 4.75 4.756 4.756 0 0 0 4.75-4.75zm-1.5 0a3.25 3.25 0 1 1-3.25-3.25 3.254 3.254 0 0 1 3.25 3.25zm11.5 14v-2a4.749 4.749 0 0 0-3.563-4.6.75.75 0 1 0-.372 1.456 3.25 3.25 0 0 1 2.438 3.144v2a.75.75 0 0 0 1.5 0zm-7.565-9.393a4.75 4.75 0 0 0 0-9.2.75.75 0 1 0-.37 1.45 3.25 3.25 0 0 1 0 6.3.75.75 0 0 0 .185 1.476.74.74 0 0 0 .185-.026z" class="cls-1" data-name="📒 icon_team" transform="translate(-75.435 -61.235)"/>
</svg>
