<svg xmlns="http://www.w3.org/2000/svg" width="17.5" height="19.5" viewBox="0 0 17.5 19.5">
    <defs>
        <style>
            .cls-1{fill:#006ce6}
        </style>
    </defs>
    <path id="_icon_user" d="M92.185 80.735a.75.75 0 0 1-.75-.75v-2a3.254 3.254 0 0 0-3.25-3.25h-8a3.254 3.254 0 0 0-3.25 3.25v2a.75.75 0 0 1-1.5 0v-2a4.755 4.755 0 0 1 4.75-4.75h8a4.756 4.756 0 0 1 4.75 4.75v2a.75.75 0 0 1-.75.75zm-3.25-14.75a4.75 4.75 0 1 0-4.75 4.75 4.756 4.756 0 0 0 4.75-4.75zm-1.5 0a3.25 3.25 0 1 1-3.25-3.25 3.254 3.254 0 0 1 3.25 3.25z" class="cls-1" data-name="📒 icon_user" transform="translate(-75.435 -61.235)"/>
</svg>
