<svg xmlns="http://www.w3.org/2000/svg" width="59" height="59" viewBox="0 0 59 59">
    <g fill="none" fill-rule="evenodd" transform="translate(-1 -2)">
        <circle cx="31" cy="31" r="31"/>
        <path fill="#006CE6" fill-rule="nonzero" d="M59.965 30.097c-.701-15.104-12.958-27.36-28.062-28.062A29.462 29.462 0 0 0 1.035 32.903c.701 15.104 12.958 27.36 28.062 28.062a29.462 29.462 0 0 0 30.868-30.868zm-25.38 28.68c-3.218.495-6.561-.206-9.202-2.105-5.86-4.21-10.028-12.71-10.606-22.697-.59.296-1.239.451-1.898.454-2.146 0-3.673-1.485-3.673-3.548 0-1.981 1.485-3.59 3.673-3.59a3.912 3.912 0 0 1 1.898.453v1.28a3.362 3.362 0 0 0-1.898-.62c-1.486 0-2.476 1.074-2.476 2.435 0 1.362 1.031 2.435 2.517 2.435.631 0 1.249-.187 1.775-.536v-1.032c0-13.205 6.355-24.306 14.814-27.03 1.94-.66 4.086-.701 6.108-.33 13.022 2.466 22.438 13.86 22.407 27.113.042 13.824-10.192 25.338-23.439 27.319v-.001z"/>
        <g fill="#006CE6">
            <path d="M48.866 27.182a3.628 3.628 0 0 1 1.886.492v1.387a3.157 3.157 0 0 0-1.886-.671c-1.476 0-2.46 1.163-2.46 2.64 0 1.475 1.024 2.639 2.5 2.639a2.88 2.88 0 0 0 1.928-.716v1.387a3.89 3.89 0 0 1-2.009.536c-2.132 0-3.65-1.61-3.65-3.847.041-2.102 1.517-3.847 3.69-3.847zM41.895 27.316h1.23v7.47h-1.23zM32.709 27.316h1.189l2.214 3.49 2.215-3.49h1.148v7.47h-1.23v-5.323c-.287.492-.575.94-.902 1.477l-1.313 1.968-1.312-1.968a28.526 28.526 0 0 1-.902-1.477v5.324h-1.19c.083 0 .083-7.471.083-7.471zM26.188 32.997a3.627 3.627 0 0 0 2.092.761c.697 0 1.189-.313 1.189-1.029 0-.85-.738-.94-1.6-1.252-.983-.314-1.845-.806-1.845-2.103 0-1.387.944-2.147 2.297-2.147.656 0 1.476.178 2.01.581v1.342a3.759 3.759 0 0 0-2.05-.716c-.657 0-1.108.269-1.108.94 0 .805.738.895 1.517 1.163 1.025.358 1.886.85 1.886 2.192 0 1.432-.984 2.237-2.378 2.237a4.038 4.038 0 0 1-2.05-.537l.04-1.432z"/>
            <path fill-rule="nonzero" d="M17.167 31.03c-.022-1.028.343-2.02 1.01-2.747.665-.726 1.575-1.124 2.516-1.101 2.05 0 3.527 1.654 3.527 3.847.021 1.027-.344 2.02-1.01 2.746-.666.727-1.575 1.124-2.517 1.101-2.05 0-3.526-1.61-3.526-3.847zm5.864 0c0-1.522-1.025-2.64-2.338-2.64-1.312 0-2.337 1.163-2.337 2.64 0 1.475 1.025 2.639 2.337 2.639 1.313 0 2.338-1.119 2.338-2.64z"/>
        </g>
    </g>
</svg>
