<svg xmlns="http://www.w3.org/2000/svg" width="21" height="21" viewBox="0 0 21 21">
    <defs>
        <style>
            .cls-1{fill:#006ce6}
        </style>
    </defs>
    <path id="icon_planet" d="M75.428 64.843a10.5 10.5 0 1 0 10.5 10.5 10.5 10.5 0 0 0-10.5-10.5zm2.582 19.113q.07-.129.135-.261a2.967 2.967 0 0 1 .847-1.082c.3-.242.888-.617.792-1.09-.069-.342-.459-.482-.754-.565a7.162 7.162 0 0 0-1.45-.2 7.009 7.009 0 0 1-1.26-.118c-.611-.155-.748-.684-.787-1.241a3.447 3.447 0 0 0-.271-1.449 1.964 1.964 0 0 0-1.634-.8c-.5-.046-1.01-.022-1.512-.106a7 7 0 0 0-1.438-.232c-.643.025-.932.461-1.207.965a13.039 13.039 0 0 1-1.494 2.594 8.939 8.939 0 0 1-1.521-4.421 1.167 1.167 0 0 0 .213-.081c.28-.139.476-.39.78-.489a2.532 2.532 0 0 1 .962.018 3.841 3.841 0 0 0 .89.019 1.141 1.141 0 0 0 1-1.056 7.594 7.594 0 0 0 .022-1.023c.016-.533.366-.724.847-.769.91-.085 3.033.156 3.076-1.245.018-.6-.695-.908-1.159-1.068a27.978 27.978 0 0 0-2.821-.423 2.6 2.6 0 0 1-1.254-.783A8.985 8.985 0 0 1 77 66.488a4.05 4.05 0 0 0-.77.219c-1.324.534-1.363 2.036-.785 3.164a5.71 5.71 0 0 0 1.547 1.773 12.162 12.162 0 0 0 1.882 1.106c.864.475.76 1.717.979 2.553a2.128 2.128 0 0 0 1.325 1.547c.422.147.918.032 1.287.326.317.252.392.767.573 1.114a.85.85 0 0 0 .687.517 9.037 9.037 0 0 1-5.715 5.149z" class="cls-1" transform="translate(-64.928 -64.843)"/>
</svg>
