<svg xmlns="http://www.w3.org/2000/svg" width="33" height="20" viewBox="0 0 33 20">
    <defs>
        <style>
            .cls-1{fill:#006ce6}
        </style>
    </defs>
    <path id="icon_coupon" d="M70.035 85.343V80.5a.952.952 0 0 0-1.9-.123.842.842 0 0 0 0 .123v4.839h-8.254a.96.96 0 0 1-.952-.968v-5.157a.96.96 0 0 1 .949-.971 2.9 2.9 0 0 0 0-5.807.959.959 0 0 1-.952-.964v-5.161a.96.96 0 0 1 .952-.968h8.248v4.838a.952.952 0 1 0 1.9.124v-4.962h20.951a.961.961 0 0 1 .952.968v5.161a.96.96 0 0 1-.952.968 2.9 2.9 0 1 0 0 5.807.96.96 0 0 1 .952.967v5.162a.959.959 0 0 1-.952.967z" class="cls-1" transform="translate(-58.929 -65.343)"/>
</svg>
