<svg xmlns="http://www.w3.org/2000/svg" width="21" height="21" viewBox="0 0 21 21">
    <path fill="#006CE6" fill-rule="nonzero" d="M18.22 7.923l-.1-.037-.39-.95.042-.098c1.182-2.736 1.1-2.818.904-3.016L17.1 2.252a.416.416 0 0 0-.276-.111c-.088 0-.357 0-2.685 1.076l-.094.043-.96-.395-.039-.097C11.951 0 11.839 0 11.566 0H9.34c-.271 0-.395 0-1.41 2.772l-.039.101-.955.398-.092-.039C5.268 2.554 4.348 2.21 4.108 2.21a.418.418 0 0 0-.275.11L2.255 3.894c-.2.202-.283.286.96 2.965l.046.1-.39.949-.096.038C0 9.04 0 9.147 0 9.432v2.227c0 .286 0 .405 2.78 1.422l.1.036.39.946-.042.097c-1.181 2.738-1.106 2.812-.905 3.016l1.574 1.572c.066.065.18.11.277.11.089 0 .357 0 2.686-1.075l.094-.045.961.397.037.098C9.048 21 9.161 21 9.433 21h2.227c.28 0 .396 0 1.412-2.774l.038-.101.957-.395.091.038c1.575.68 2.495 1.023 2.733 1.023a.418.418 0 0 0 .277-.11l1.58-1.577c.2-.203.282-.286-.964-2.962l-.046-.1.39-.946.093-.038C21 11.958 21 11.851 21 11.565V9.34c0-.286 0-.404-2.78-1.417zm-7.72 6.189A3.614 3.614 0 0 1 6.89 10.5c0-1.99 1.62-3.609 3.609-3.609a3.612 3.612 0 0 1 3.607 3.61 3.614 3.614 0 0 1-3.607 3.61z"/>
</svg>
