<svg xmlns="http://www.w3.org/2000/svg" width="13" height="16" viewBox="0 0 13 16">
    <g fill="#006CE6" fill-rule="evenodd">
        <path d="M.67 6.053c-1.344 2.307-.489 5.81.998 7.933C2.411 15.047 3.162 16 4.191 16l.06-.001c.483-.02.832-.166 1.17-.309.38-.16.772-.325 1.388-.325.585 0 .959.16 1.32.315.356.152.723.31 1.265.3 1.16-.022 1.871-1.05 2.5-1.957a8.63 8.63 0 0 0 1.095-2.218l.004-.014a.128.128 0 0 0-.069-.158l-.01-.004c-.204-.083-1.995-.869-2.014-3.01-.017-1.74 1.344-2.661 1.617-2.828l.013-.008a.129.129 0 0 0 .037-.181c-.94-1.36-2.38-1.565-2.96-1.59A2.64 2.64 0 0 0 9.35 4c-.68 0-1.333.254-1.857.459-.362.14-.674.263-.89.263-.242 0-.556-.124-.92-.267-.487-.19-1.038-.407-1.622-.407h-.041c-1.358.02-2.64.788-3.348 2.005zM9.867 0c-.718.035-1.58.557-2.096 1.27-.438.6-.865 1.6-.753 2.607.007.063.05.111.104.116.049.005.098.007.148.007.702 0 1.46-.46 1.978-1.199.545-.781.82-1.783.737-2.681C9.98.05 9.926-.003 9.867 0z"/>
    </g>
</svg>
