<svg xmlns="http://www.w3.org/2000/svg" width="12.75" height="12.75" viewBox="0 0 12.75 12.75">
    <defs>
        <style>
            .cls-1{fill:#006ce6}
        </style>
    </defs>
    <path id="icon_phone" d="M16.367 80.86a8.078 8.078 0 0 1-2.529-.4.72.72 0 0 0-.722.17l-1.559 1.555a10.664 10.664 0 0 1-4.668-4.668l1.558-1.566a.68.68 0 0 0 .178-.708 8.082 8.082 0 0 1-.4-2.529.709.709 0 0 0-.712-.708h-2.48a.71.71 0 0 0-.708.708 12.042 12.042 0 0 0 12.04 12.042.711.711 0 0 0 .708-.708v-2.479a.709.709 0 0 0-.708-.708zm-.709-2.479h1.417a6.375 6.375 0 0 0-6.375-6.375v1.417a4.954 4.954 0 0 1 4.958 4.952zm-2.833 0h1.417a3.542 3.542 0 0 0-3.542-3.542v1.417a2.121 2.121 0 0 1 2.125 2.119z" class="cls-1" transform="translate(-4.325 -72.006)"/>
</svg>
